# xmcd CD database file
#
# Track frame offsets:
#	150
#	11880
#	25742
#	41402
#	53714
#	69972
#	84798
#	96419
#	110917
#	124605
#	134996
#	144707
#	158251
#
# Disc length: 2238 seconds
#
# Revision: 1
# Processed by: cddbd v1.5.2PL0 Copyright (c) Steve Scherf et al.
# Submitted via: CDex 1.70beta2
#
DISCID=ac08bc0d
DTITLE=Mobylettes - Kicking The Clouds Away
DYEAR=1998
DGENRE=Motown - Soul
TTITLE0=Kicking The Clouds Away
TTITLE1=Let's Call The Whole Thing Off
TTITLE2=Blah Blah Blah
TTITLE3=The Man I Love
TTITLE4=He Loves And She Loves
TTITLE5=Looking For A Boy
TTITLE6=Nice Work (If You Can Get It)
TTITLE7=Sam and Delilah
TTITLE8=Clap Your Hands
TTITLE9=I Got Rhythm
TTITLE10=Lorelei
TTITLE11=Boy! What Love Has Done To Me!
TTITLE12=Summertime
EXTD=YEAR: 1998
EXTT0=
EXTT1=
EXTT2=
EXTT3=
EXTT4=
EXTT5=
EXTT6=
EXTT7=
EXTT8=
EXTT9=
EXTT10=
EXTT11=
EXTT12=
PLAYORDER=
